# xmcd
#
# Track frame offsets:
# 183
# 13418
# 37645
# 49928
# 66850
# 76985
# 92018
# 105378
# 114393
# 124910
# 139930
# 152018
# 172110
# 183335
# 194583
# 205848
#
# Disc length: 2952 seconds
#
#
# Revision: 0
# Processed by: cddbd v1.5.1PL0 Copyright (c) Steve Scherf et al.
# Submitted via: FreeRIP 2.941 
#
DISCID=da0b8610
DTITLE=Country kolotoc 2
DYEAR=1990
DGENRE=Folk/Rock
TTITLE0=Bát se je to poslední
TTITLE1=Dalnicni hlidka
TTITLE2=To tenkrat v ctyricatom patom
TTITLE3=Visaci zamek
TTITLE4=Pocta Davidovi
TTITLE5=Zas bude vsechno O.K.
TTITLE6=Az mraz koprivu spali
TTITLE7=At se zemekoule toci dal
TTITLE8=Do sedla Jo
TTITLE9=Konecna
TTITLE10=Tak co mi koupis
TTITLE11=Cesty domu
TTITLE12=Namornik
TTITLE13=Stejne za moc nestala
TTITLE14=Tak uz koukej se hnout
TTITLE15=Jed dal
EXTD=Supraphon 1990
EXTT0=Vera Martinová
EXTT1=Pavel Bobek  - Nopovi
EXTT2=Jan Vycital
EXTT3=Nota bene
EXTT4=Poutnici
EXTT5=Plavci
EXTT6=Nina Nova a Band
EXTT7=Blanket
EXTT8=Dana Heckerova  Tucnaci
EXTT9=Nervove sanatorium
EXTT10=Meduzy
EXTT11=Fesaci
EXTT12=Volupsije
EXTT13=Schovanky
EXTT14=Pacifik
EXTT15=KTO
PLAYORDER=
